<svg width="48" height="48" viewBox="0 0 48 48" fill="none" xmlns="http://www.w3.org/2000/svg">
<path d="M24 11C16.832 11 11 16.832 11 24C11 31.168 16.832 37 24 37C31.168 37 37 31.168 37 24C37 16.832 31.168 11 24 11ZM22.875 13.063C22.918 13.059 22.957 13.066 23 13.063V23H19.937C19.7358 20.273 18.675 17.68 16.907 15.594C18.551 14.204 20.605 13.293 22.875 13.062V13.063ZM25 13.063C27.244 13.2561 29.373 14.14 31.094 15.593C29.3251 17.679 28.2635 20.2724 28.062 23H25V13.063ZM15.5 17.03C16.8975 18.7278 17.7475 20.8093 17.938 23H13.061C13.2537 20.81 14.1039 18.7293 15.5 17.031V17.03ZM32.5 17.03C33.8959 18.7287 34.7458 20.8097 34.938 23H30.063C30.2534 20.8098 31.103 18.7286 32.5 17.031V17.03ZM13.062 25H17.937C17.7466 27.1902 16.897 29.2714 15.5 30.969C14.1043 29.2706 13.2544 27.1899 13.062 25ZM19.937 25H23V34.938C20.7557 34.7443 18.6267 33.8597 16.906 32.406C18.6743 30.3201 19.7356 27.7271 19.937 25ZM25 25H28.063C28.2642 27.727 29.325 30.32 31.093 32.406C29.3726 33.8596 27.2439 34.7441 25 34.938V25ZM30.063 25H34.938C34.7456 27.1899 33.8957 29.2706 32.5 30.969C31.1027 29.2715 30.2527 27.1904 30.062 25H30.063Z" fill="white"/>
<rect opacity="0.48" x="1.5" y="1.5" width="45" height="45" stroke="#FFC300" stroke-width="3"/>
</svg>
