<svg width="18" height="18" viewBox="0 0 18 18" fill="none" xmlns="http://www.w3.org/2000/svg">
<path d="M2.51989 0.685672L8.99989 7.13635L15.4532 0.712218C15.5663 0.592386 15.7026 0.496525 15.8538 0.430382C16.005 0.364239 16.1681 0.329178 16.3332 0.327301C16.6868 0.327301 17.026 0.467141 17.276 0.716058C17.5261 0.964975 17.6666 1.30258 17.6666 1.6546C17.6697 1.81733 17.6393 1.97898 17.5774 2.12962C17.5155 2.28026 17.4233 2.41672 17.3066 2.53062L10.7866 8.95475L17.3066 15.4453C17.5263 15.6593 17.6552 15.9491 17.6666 16.2549C17.6666 16.6069 17.5261 16.9445 17.276 17.1934C17.026 17.4424 16.6868 17.5822 16.3332 17.5822C16.1633 17.5892 15.9938 17.561 15.8354 17.4993C15.677 17.4376 15.5332 17.3438 15.4132 17.2238L8.99989 10.7732L2.53323 17.2106C2.42057 17.3264 2.28598 17.4189 2.13723 17.4827C1.98848 17.5465 1.82851 17.5803 1.66656 17.5822C1.31294 17.5822 0.973798 17.4424 0.723749 17.1934C0.473701 16.9445 0.333225 16.6069 0.333225 16.2549C0.330116 16.0922 0.360445 15.9305 0.422352 15.7799C0.484258 15.6292 0.576434 15.4928 0.693225 15.3789L7.21322 8.95475L0.693225 2.46425C0.473471 2.25024 0.344611 1.96043 0.333225 1.6546C0.333225 1.30258 0.473701 0.964975 0.723749 0.716058C0.973798 0.467141 1.31294 0.327301 1.66656 0.327301C1.98656 0.331283 2.29322 0.460031 2.51989 0.685672Z" fill="white"/>
</svg>
