<svg width="18" height="18" viewBox="0 0 18 18" fill="none" xmlns="http://www.w3.org/2000/svg">
<path d="M2.51999 0.693313L8.99999 7.17331L15.4533 0.71998C15.5664 0.599603 15.7027 0.503306 15.8539 0.436862C16.0051 0.370419 16.1682 0.335199 16.3333 0.333313C16.6869 0.333313 17.0261 0.473789 17.2761 0.723837C17.5262 0.973886 17.6667 1.31302 17.6667 1.66665C17.6698 1.83012 17.6394 1.9925 17.5775 2.14382C17.5156 2.29515 17.4234 2.43223 17.3067 2.54665L10.7867 8.99998L17.3067 15.52C17.5264 15.735 17.6553 16.0261 17.6667 16.3333C17.6667 16.6869 17.5262 17.0261 17.2761 17.2761C17.0261 17.5262 16.6869 17.6666 16.3333 17.6666C16.1634 17.6737 15.9939 17.6453 15.8355 17.5834C15.6771 17.5214 15.5333 17.4272 15.4133 17.3066L8.99999 10.8266L2.53332 17.2933C2.42067 17.4097 2.28608 17.5026 2.13733 17.5667C1.98858 17.6307 1.82861 17.6647 1.66666 17.6666C1.31304 17.6666 0.973897 17.5262 0.723848 17.2761C0.4738 17.0261 0.333324 16.6869 0.333324 16.3333C0.330215 16.1698 0.360545 16.0075 0.422451 15.8561C0.484357 15.7048 0.576533 15.5677 0.693324 15.4533L7.21332 8.99998L0.693324 2.47998C0.473571 2.26499 0.34471 1.97386 0.333324 1.66665C0.333324 1.31302 0.4738 0.973886 0.723848 0.723837C0.973897 0.473789 1.31304 0.333313 1.66666 0.333313C1.98666 0.337313 2.29332 0.466646 2.51999 0.693313Z" fill="#302E2E"/>
</svg>
