<svg width="48" height="48" viewBox="0 0 48 48" fill="none" xmlns="http://www.w3.org/2000/svg">
<rect opacity="0.48" x="1.5" y="1.5" width="45" height="45" stroke="#FFC300" stroke-width="3"/>
<path d="M33.5 27C31.5078 27.0019 29.5571 27.5698 27.8751 28.6376C26.1932 29.7054 24.8493 31.2291 24 33.0312C23.1507 31.2291 21.8068 29.7054 20.1249 28.6376C18.4429 27.5698 16.4922 27.0019 14.5 27H9V28C9 33.7898 13.7102 38.5 19.5 38.5H28.5C34.2897 38.5 39 33.7898 39 28V27H33.5ZM19.5 36.5C15.1512 36.5 11.5547 33.2176 11.0585 29H14.5C18.8488 29 22.4452 32.2824 22.9415 36.5H19.5ZM28.5 36.5H25.0585C25.5548 32.2824 29.1512 29 33.5 29H36.9415C36.4452 33.2176 32.8488 36.5 28.5 36.5Z" fill="white"/>
<path d="M18.5766 24.4235C18.7657 25.548 19.3022 26.5851 20.1108 27.3893L20.4037 27.6821H20.8179C21.9582 27.6853 23.071 27.3313 23.9999 26.6699C24.9288 27.3314 26.0415 27.6855 27.1819 27.6824H27.5961L27.889 27.3895C28.6976 26.5854 29.2341 25.5483 29.4232 24.4237C30.5478 24.2346 31.5849 23.6981 32.389 22.8895L32.6819 22.5966V22.1824C32.6851 21.042 32.3311 19.9291 31.6696 19.0001C32.3312 18.0712 32.6852 16.9585 32.6821 15.8181V15.404L32.3893 15.111C31.5851 14.3025 30.548 13.766 29.4235 13.5768C29.2343 12.4523 28.6978 11.4152 27.8893 10.611L27.5963 10.3181H27.1821C26.0417 10.3149 24.9289 10.6689 23.9999 11.3304C23.071 10.6689 21.9583 10.3148 20.8179 10.3179H20.4037L20.1108 10.6108C19.3022 11.4149 18.7657 12.452 18.5766 13.5766C17.452 13.7657 16.4149 14.3022 15.6108 15.1108L15.3179 15.4037V15.8179C15.3147 16.9583 15.6687 18.0711 16.3301 19.0001C15.6686 19.929 15.3145 21.0418 15.3176 22.1821V22.5963L15.6105 22.8893C16.4147 23.6979 17.4519 24.2344 18.5766 24.4235ZM18.3431 18.2931C17.7885 17.7418 17.4361 17.0195 17.3431 16.2431C17.9579 15.7597 18.7178 15.4979 19.4999 15.5001H20.4999V14.5001C20.4976 13.7181 20.7593 12.9583 21.2426 12.3435C22.0191 12.4366 22.7414 12.7889 23.2926 13.3435L23.9999 14.0501L24.707 13.3431C25.2582 12.7885 25.9805 12.4361 26.757 12.3431C27.2404 12.9579 27.5022 13.718 27.4999 14.5001V15.5001H28.4999C29.2819 15.4979 30.0418 15.7596 30.6565 16.2429C30.5635 17.0193 30.2111 17.7416 29.6565 18.2929L28.9499 19.0001L29.657 19.7073C30.2116 20.2585 30.564 20.9808 30.657 21.7573C30.0421 22.2407 29.2821 22.5025 28.4999 22.5001H27.4999V23.5001C27.5022 24.2821 27.2404 25.042 26.7571 25.6568C25.9807 25.5637 25.2584 25.2114 24.7071 24.6568L23.9999 23.9501L23.2928 24.657C22.7415 25.2116 22.0192 25.564 21.2428 25.657C20.7594 25.0422 20.4976 24.2822 20.4999 23.5001V22.5001H19.4999C18.7179 22.5024 17.958 22.2407 17.3433 21.7574C17.4363 20.981 17.7887 20.2587 18.3433 19.7074L19.0499 19.0001L18.3431 18.2931Z" fill="white"/>
</svg>
