<svg width="48" height="48" viewBox="0 0 48 48" fill="none" xmlns="http://www.w3.org/2000/svg">
<rect opacity="0.48" x="1.5" y="1.5" width="45" height="45" stroke="#FFC300" stroke-width="3"/>
<path d="M20 12C18.348 12 17 13.348 17 15V27.625L18 26.906L19 27.625V15C19 14.45 19.45 14 20 14H21V12H20ZM32 12C30.348 12 29 13.348 29 15V16H20V18H29V20H20V22H29V24H20V26H29V27.625L30 26.906L31 27.625V15C31 14.45 31.45 14 32 14H33V12H32ZM18 28.719L17.375 29.219C17.375 29.219 16.371 30 15.031 30C13.691 30 12.625 29.219 12.625 29.219L11.375 30.781C11.375 30.781 12.918 32 15.031 32C16.492 32 17.421 31.516 18 31.156C18.582 31.512 19.559 32 21.031 32C22.492 32 23.421 31.516 24 31.156C24.582 31.512 25.559 32 27.031 32C28.492 32 29.421 31.516 30 31.156C30.582 31.512 31.559 32 33.031 32C35.145 32 36.625 30.781 36.625 30.781L35.375 29.219C35.375 29.219 34.371 30 33.031 30C31.691 30 30.625 29.219 30.625 29.219L30 28.719L29.375 29.219C29.375 29.219 28.371 30 27.031 30C25.691 30 24.625 29.219 24.625 29.219L24 28.719L23.375 29.219C23.375 29.219 22.371 30 21.031 30C19.691 30 18.625 29.219 18.625 29.219L18 28.719ZM18 32.719L17.375 33.219C17.375 33.219 16.371 34 15.031 34C13.691 34 12.625 33.219 12.625 33.219L11.375 34.781C11.375 34.781 12.918 36 15.031 36C16.492 36 17.421 35.516 18 35.156C18.582 35.512 19.559 36 21.031 36C22.492 36 23.421 35.516 24 35.156C24.582 35.512 25.559 36 27.031 36C28.492 36 29.421 35.516 30 35.156C30.582 35.512 31.559 36 33.031 36C35.145 36 36.625 34.781 36.625 34.781L35.375 33.219C35.375 33.219 34.371 34 33.031 34C31.691 34 30.625 33.219 30.625 33.219L30 32.719L29.375 33.219C29.375 33.219 28.371 34 27.031 34C25.691 34 24.625 33.219 24.625 33.219L24 32.719L23.375 33.219C23.375 33.219 22.371 34 21.031 34C19.691 34 18.625 33.219 18.625 33.219L18 32.719Z" fill="white"/>
</svg>
