<svg width="28" height="23" viewBox="0 0 28 23" fill="none" xmlns="http://www.w3.org/2000/svg">
<path d="M13.9991 1.99894L14 1.99805L13.6168 1.07441L14 1.99805L14.0009 1.99894L26.0009 13.9989L26.0013 13.9998L26.0009 14.0007L26.708 14.7078L26.0009 14.0007L26 14.0011L25.9992 14.0007L14.7072 2.70679L14 1.9995L13.2929 2.70679L2.00093 14.0007L2.00004 14.0011L1.99915 14.0007L1.29204 14.7078L1.99915 14.0007L1.99878 13.9998L1.99915 13.9989L13.9991 1.99894Z" fill="#D4AF37" stroke="#D4AF37" stroke-width="2"/>
<path d="M13.9991 9.99894L14 9.99805L13.6168 9.07441L14 9.99805L14.0009 9.99894L26.0009 21.9989L26.0013 21.9998L26.0009 22.0007L26.708 22.7078L26.0009 22.0007L26 22.0011L25.9992 22.0007L14.7072 10.7068L14 9.99949L13.2929 10.7068L2.00093 22.0007L2.00004 22.0011L1.99915 22.0007L1.29204 22.7078L1.99915 22.0007L1.99878 21.9998L1.99915 21.9989L13.9991 9.99894Z" fill="#D4AF37" stroke="#D4AF37" stroke-width="2"/>
</svg>
