<svg width="48" height="48" viewBox="0 0 48 48" fill="none" xmlns="http://www.w3.org/2000/svg">
<rect opacity="0.48" x="1.5" y="1.5" width="45" height="45" stroke="#FFC300" stroke-width="3"/>
<path d="M24 11C22.355 11 21 12.355 21 14V21.344L12.594 25.094L12 25.344V30.124L13.125 30L21 29.125V30.969L18.437 32.686L18 32.966V37.219L19.188 36.969L24 36L28.813 36.97L30 37.22V32.97L29.562 32.688L27 30.968V29.125L34.875 30L36 30.125V25.345L35.406 25.095L27 21.344V14C27 12.355 25.645 11 24 11ZM24 13C24.565 13 25 13.435 25 14V22.656L25.594 22.906L34 26.656V27.876L26.125 27L25 26.875V32.062L25.438 32.344L28 34.062V34.782L24.187 34.032L24 33.97L23.812 34.03L20 34.78V34.06L22.563 32.343L23 32.061V26.875L21.875 27L14 27.875V26.655L22.406 22.905L23 22.655V14C23 13.435 23.435 13 24 13Z" fill="white"/>
</svg>
