<svg width="48" height="48" viewBox="0 0 48 48" fill="none" xmlns="http://www.w3.org/2000/svg">
<rect opacity="0.48" x="1.5" y="1.5" width="45" height="45" stroke="#FFC300" stroke-width="3"/>
<path d="M35.0321 21.1586L30.4427 14.6053L32.6281 13.0759L37.2161 19.6293L35.0321 21.1586Z" fill="white"/>
<path d="M32.52 24.5452L30.2267 21.2665L19.304 28.9145L21.5974 32.1905L19.4134 33.7212L13.296 24.9825L15.48 23.4532L17.7734 26.7305L28.696 19.0825L26.4027 15.8052L28.5867 14.2759L34.704 23.0132L32.52 24.5439V24.5452Z" fill="white"/>
<path d="M35.6867 17.4439L37.8707 15.9146L36.3413 13.7306L34.1573 15.2599L35.6867 17.4439Z" fill="white"/>
<path d="M17.5574 33.3946L12.9681 26.8413L10.7841 28.3706L15.3721 34.924L17.5574 33.3946Z" fill="white"/>
<path d="M13.8427 32.7399L11.6587 34.2692L10.1294 32.0852L12.3134 30.5559L13.8427 32.7399Z" fill="white"/>
</svg>
