<svg width="48" height="48" viewBox="0 0 48 48" fill="none" xmlns="http://www.w3.org/2000/svg">
<rect opacity="0.48" x="1.5" y="1.5" width="45" height="45" stroke="#FFC300" stroke-width="3"/>
<g clip-path="url(#clip0)">
<path d="M27.8872 19.4873L29.8308 22.8025C30.9414 21.6974 32.1909 20.9792 33.5792 20.9792C37.0846 20.9792 40 25.5652 40 31.201C40 36.7815 37.0846 41.3676 33.5792 41.3676C30.4208 41.3676 27.7831 37.7761 27.2625 32.9138L24.3818 33.1901H24.3471C24.1041 33.1901 23.9306 32.9691 23.7571 32.7481L17.8568 21.0897L17.5098 22.25C19.4534 24.0181 20.8416 27.3333 20.8416 31.201C20.8416 36.7815 17.9262 41.3676 14.3861 41.3676C10.8807 41.3676 8 36.7815 8 31.201C8 25.5652 10.8807 20.9792 14.3861 20.9792C14.9414 20.9792 15.462 21.0897 15.9826 21.2554L17.4403 15.1776L13.449 13.4647C13.0672 13.299 12.7896 12.6359 12.8937 12.0282C13.0325 11.3651 13.449 10.9231 13.8655 11.0889L18.6551 13.2437C18.8633 13.299 19.1063 13.5752 19.1757 13.9068C19.2451 14.1278 19.2798 14.5145 19.2104 14.8461L18.8633 16.1169L26.5336 18.4375L27.5401 13.6305L26.1518 13.7963H26.1171C25.7007 13.7963 25.3536 13.1332 25.3536 12.5254C25.3536 11.9177 25.6659 11.3099 26.1171 11.2546L30.6291 10.9231C31.0456 10.9231 31.4273 11.4756 31.4273 12.1387C31.462 12.857 31.0803 13.3542 30.6985 13.4095L29.1714 13.52L27.8872 19.4873ZM24.0694 29.3776L25.9783 20.7029L18.5163 18.548L24.0694 29.3776ZM25.4577 30.6485L27.1931 30.4827C27.2625 28.2173 27.8178 26.173 28.7202 24.5154L27.2972 22.0842L25.4577 30.6485ZM13.7614 30.7037L15.4273 23.6313C15.115 23.5208 14.7332 23.4655 14.3861 23.4655C11.7137 23.4655 9.56182 26.8912 9.56182 31.201C9.56182 35.4555 11.7137 38.8812 14.3861 38.8812C17.0586 38.8812 19.2798 35.4555 19.2798 31.201C19.2798 28.3831 18.3427 25.8967 16.9544 24.5706L15.2191 31.5878C15.0456 32.1955 14.5944 32.4718 14.1779 32.2508C13.7961 31.9745 13.6226 31.3115 13.7614 30.7037ZM33.5792 32.3613L28.8243 32.8033C29.3102 36.2843 31.2191 38.8812 33.5792 38.8812C36.2516 38.8812 38.4382 35.4555 38.4382 31.201C38.4382 26.8912 36.2516 23.4655 33.5792 23.4655C32.5727 23.4655 31.6703 23.8523 30.9067 24.6811L34.1345 30.3722C34.308 30.759 34.4121 31.2562 34.2733 31.643C34.1692 32.085 33.8915 32.3613 33.5792 32.3613ZM28.7549 30.3722L31.9132 30.0959L29.7614 26.3387C29.2061 27.5543 28.8243 28.8251 28.7549 30.3722Z" fill="white"/>
</g>
<defs>
<clipPath id="clip0">
<rect width="32" height="34.3674" fill="white" transform="translate(8 7)"/>
</clipPath>
</defs>
</svg>
