<svg width="48" height="48" viewBox="0 0 48 48" fill="none" xmlns="http://www.w3.org/2000/svg">
<rect opacity="0.48" x="1.5" y="1.5" width="45" height="45" stroke="#FFC300" stroke-width="3"/>
<path d="M36.8951 28.5966H18.3085L19.2418 26.9358L34.7477 26.9112C35.2721 26.9112 35.7215 26.584 35.8152 26.1313L37.9625 15.629C38.0187 15.3535 37.9345 15.0699 37.7285 14.8545C37.6266 14.7484 37.4997 14.663 37.3563 14.6042C37.2129 14.5453 37.0566 14.5144 36.8982 14.5136L17.1724 14.4563L17.0039 13.7636C16.8978 13.3218 16.4421 13 15.924 13H11.1018C10.8096 13 10.5293 13.1014 10.3227 13.282C10.1161 13.4625 10 13.7074 10 13.9627C10 14.218 10.1161 14.4629 10.3227 14.6434C10.5293 14.8239 10.8096 14.9254 11.1018 14.9254H15.0313L15.7679 17.9852L17.5813 25.6567L15.2467 28.9866C15.1254 29.1296 15.0524 29.2994 15.0359 29.4767C15.0193 29.6541 15.0599 29.832 15.153 29.9902C15.3403 30.3147 15.718 30.5193 16.1362 30.5193H18.0963C17.6784 31.0042 17.4527 31.5949 17.4534 32.2019C17.4534 33.7455 18.8891 35 20.6557 35C22.4222 35 23.858 33.7455 23.858 32.2019C23.858 31.5938 23.627 31.002 23.215 30.5193H28.2432C27.8254 31.0042 27.5997 31.5949 27.6003 32.2019C27.6003 33.7455 29.036 35 30.8026 35C32.5692 35 34.0049 33.7455 34.0049 32.2019C34.0049 31.5938 33.7739 31.002 33.3619 30.5193H36.8982C37.5037 30.5193 38 30.0884 38 29.5566C37.9982 29.3015 37.881 29.0575 37.674 28.8776C37.467 28.6978 37.187 28.5968 36.8951 28.5966ZM17.6313 16.3544L35.6029 16.4062L33.8426 25.0186L19.7256 25.0404L17.6313 16.3544ZM20.6557 33.0637C20.1126 33.0637 19.6694 32.6765 19.6694 32.2019C19.6694 31.7274 20.1126 31.3402 20.6557 31.3402C21.1988 31.3402 21.642 31.7274 21.642 32.2019C21.642 32.4305 21.538 32.6497 21.3531 32.8113C21.1681 32.9729 20.9172 33.0637 20.6557 33.0637ZM30.8026 33.0637C30.2595 33.0637 29.8163 32.6765 29.8163 32.2019C29.8163 31.7274 30.2595 31.3402 30.8026 31.3402C31.3457 31.3402 31.7889 31.7274 31.7889 32.2019C31.7889 32.4305 31.685 32.6497 31.5 32.8113C31.315 32.9729 31.0642 33.0637 30.8026 33.0637Z" fill="white"/>
</svg>
