<svg width="48" height="48" viewBox="0 0 48 48" fill="none" xmlns="http://www.w3.org/2000/svg">
<rect opacity="0.48" x="1.5" y="1.5" width="45" height="45" stroke="#FFC300" stroke-width="3"/>
<path d="M37.1805 18.7155C36.993 18.756 34.476 19.3425 31.251 21.3765C30.7665 19.026 29.3325 14.625 25.089 10.149L24 9L22.911 10.1505C18.6525 14.643 17.2245 19.056 16.7445 21.4215C13.5075 19.353 11.01 18.759 10.827 18.717L9 18.309V20.181C9 31.116 14.8875 38.181 24 38.181C32.9715 38.181 39 30.948 39 20.181V18.318L37.1805 18.7155ZM19.4985 23.238C19.5015 23.1885 19.7265 18.588 24 13.44C28.221 18.54 28.4985 23.181 28.5 23.181V23.3685C26.8178 24.7664 25.3028 26.3539 23.985 28.0995C22.6635 26.3847 21.1591 24.819 19.4985 23.43V23.238ZM24 35.181C16.026 35.181 12.6765 28.887 12.0945 22.335C14.577 23.412 19.0185 25.974 22.755 31.5195L24.0165 33.393L25.254 31.503C28.893 25.941 33.3915 23.3865 35.898 22.32C35.301 28.662 31.956 35.181 24 35.181Z" fill="white"/>
</svg>
