<svg width="17" height="20" viewBox="0 0 17 20" fill="none" xmlns="http://www.w3.org/2000/svg">
<path d="M1.75004 18.5H15.25C15.4375 18.4997 15.6182 18.5695 15.7567 18.6958C15.8952 18.822 15.9814 18.9956 15.9984 19.1822C16.0153 19.3689 15.9617 19.5551 15.8482 19.7042C15.7347 19.8534 15.5695 19.9546 15.385 19.988L15.25 20H1.75004C1.56262 20.0003 1.38186 19.9305 1.24336 19.8042C1.10487 19.678 1.01866 19.5044 1.00173 19.3178C0.984792 19.1311 1.03836 18.9449 1.15187 18.7958C1.26538 18.6466 1.43062 18.5454 1.61504 18.512L1.75004 18.5H15.25H1.75004ZM8.36504 0.512L8.50004 0.5C8.67558 0.499942 8.84558 0.561457 8.98043 0.673834C9.11528 0.786211 9.20644 0.942329 9.23804 1.115L9.25004 1.25V14.438L13.273 10.4165C13.3971 10.2923 13.5609 10.2155 13.7358 10.1996C13.9107 10.1837 14.0856 10.2297 14.23 10.3295L14.335 10.4165C14.4591 10.5408 14.5355 10.7046 14.5512 10.8795C14.5668 11.0544 14.5206 11.2292 14.4205 11.3735L14.3335 11.477L9.03104 16.781C8.90676 16.905 8.7429 16.9815 8.56803 16.9971C8.39315 17.0127 8.21834 16.9665 8.07404 16.8665L7.96904 16.781L2.66654 11.477C2.53366 11.3447 2.45516 11.1675 2.44649 10.9802C2.43782 10.7929 2.49961 10.6091 2.6197 10.4651C2.73979 10.3211 2.90946 10.2273 3.09527 10.2022C3.28107 10.1771 3.46955 10.2225 3.62354 10.3295L3.72704 10.4165L7.75004 14.438V1.25C7.74998 1.07446 7.8115 0.904464 7.92387 0.769612C8.03625 0.63476 8.19237 0.543597 8.36504 0.512L8.50004 0.5L8.36504 0.512Z" fill="white"/>
</svg>
